HIERARCHY
ROOT root
{
	OFFSET 0.000000 0.000000 0.000000
	CHANNELS 6 Xposition Yposition Zposition Zrotation Yrotation Xrotation
	JOINT lhip
	{
		OFFSET 0.058581 -0.082280 -0.017664
		CHANNELS 3 Zrotation Yrotation Xrotation
		JOINT lknee
		{
			OFFSET 0.043451 -0.386469 0.008037
			CHANNELS 3 Zrotation Yrotation Xrotation
			JOINT lankle
			{
				OFFSET -0.014790 -0.426874 -0.037428
				CHANNELS 3 Zrotation Yrotation Xrotation
				JOINT ltoe
				{
					OFFSET 0.041054 -0.060286 0.122042
					CHANNELS 3 Zrotation Yrotation Xrotation
					End Site
					{
						OFFSET 0.000000 0.000000 0.000000
					}
				}
			}
		}
	}
	JOINT rhip
	{
		OFFSET -0.060310 -0.090513 -0.013543
		CHANNELS 3 Zrotation Yrotation Xrotation
		JOINT rknee
		{
			OFFSET -0.043257 -0.383688 -0.004843
			CHANNELS 3 Zrotation Yrotation Xrotation
			JOINT rankle
			{
				OFFSET 0.019056 -0.420046 -0.034562
				CHANNELS 3 Zrotation Yrotation Xrotation
				JOINT rtoe
				{
					OFFSET -0.034840 -0.062106 0.130323
					CHANNELS 3 Zrotation Yrotation Xrotation
					End Site
					{
						OFFSET 0.000000 0.000000 0.000000
					}
				}
			}
		}
	}
	JOINT lowerback
	{
		OFFSET 0.004439 0.124404 -0.038385
		CHANNELS 3 Zrotation Yrotation Xrotation
		JOINT upperback
		{
			OFFSET 0.004488 0.137956 0.026820
			CHANNELS 3 Zrotation Yrotation Xrotation
			JOINT chest
			{
				OFFSET -0.002265 0.056032 0.002855
				CHANNELS 3 Zrotation Yrotation Xrotation
				JOINT lowerneck
				{
					OFFSET -0.013390 0.211636 -0.033468
					CHANNELS 3 Zrotation Yrotation Xrotation
					JOINT upperneck
					{
						OFFSET 0.010113 0.088937 0.050410
						CHANNELS 3 Zrotation Yrotation Xrotation
						End Site
						{
							OFFSET 0.000000 0.000000 0.000000
						}
					}
				}
				JOINT lclavicle
				{
					OFFSET 0.071702 0.114000 -0.018898
					CHANNELS 3 Zrotation Yrotation Xrotation
					JOINT lshoulder
					{
						OFFSET 0.122921 0.045205 -0.019046
						CHANNELS 3 Zrotation Yrotation Xrotation
						JOINT lelbow
						{
							OFFSET 0.255332 -0.015649 -0.022946
							CHANNELS 3 Zrotation Yrotation Xrotation
							JOINT lwrist
							{
								OFFSET 0.265709 0.012698 -0.007375
								CHANNELS 3 Zrotation Yrotation Xrotation
								End Site
								{
									OFFSET 0.000000 0.000000 0.000000
								}
							}
						}
					}
				}
				JOINT rclavicle
				{
					OFFSET -0.082954 0.112472 -0.023707
					CHANNELS 3 Zrotation Yrotation Xrotation
					JOINT rshoulder
					{
						OFFSET -0.113228 0.046853 -0.008472
						CHANNELS 3 Zrotation Yrotation Xrotation
						JOINT relbow
						{
							OFFSET -0.260127 -0.014369 -0.031269
							CHANNELS 3 Zrotation Yrotation Xrotation
							JOINT rwrist
							{
								OFFSET -0.269108 0.006794 -0.006027
								CHANNELS 3 Zrotation Yrotation Xrotation
								End Site
								{
									OFFSET 0.000000 0.000000 0.000000
								}
							}
						}
					}
				}
			}
		}
	}
}
MOTION
Frames: 13
Frame Time: 0.033333
2.460546 0.434483 0.885529 -95.796762 5.166180 109.852575 4.157552 -0.168294 -11.393035 -8.644799 -3.630568 57.068246 -5.299710 3.862719 3.351716 0.000000 -0.000000 0.000000 -3.271488 3.131852 -52.994941 1.068422 -24.632158 47.232685 -1.071520 1.922317 -26.673023 0.000000 -0.000000 0.000000 6.398255 -8.766330 46.870095 0.684281 5.737126 -5.208684 3.438050 -0.218705 -3.686499 -12.206421 3.901636 -18.740639 -4.196341 0.826440 -6.320256 -20.218328 -10.722126 -0.185596 -58.915523 -7.704681 14.564995 83.258357 -75.271498 -53.919735 9.978820 -14.424384 -10.309665 20.744071 16.162141 3.981668 49.326285 1.700037 5.503487 -26.548969 51.040074 -16.404585 1.000880 8.783080 -11.223230 
2.389836 0.440097 0.883861 -97.981057 5.353899 109.904209 5.842296 -0.391526 -23.428185 -7.845719 1.807078 68.416521 -2.868798 3.389070 -8.796902 0.000000 -0.000000 0.000000 -1.750342 2.705986 -49.438168 0.981156 -22.512818 49.884986 -1.803489 2.069633 -30.327715 0.000000 -0.000000 0.000000 5.933592 -6.451871 50.474154 0.338711 4.991578 -6.431387 3.359427 0.676172 -3.396553 -12.911548 3.362997 -18.770083 -4.273529 0.555343 -6.594635 -21.856186 -12.177142 -0.010588 -57.601708 -5.927361 13.203581 64.943661 -71.481363 -39.012022 12.274177 -13.512320 -12.893651 21.400246 19.019833 4.042919 47.357860 4.768468 4.680120 -28.701401 50.101055 -18.481570 0.964173 8.644625 -10.683341 
2.317499 0.444584 0.877746 -100.103549 5.088918 109.174679 7.923727 -0.293224 -35.445741 -7.119115 6.447876 76.962654 -0.658161 3.555384 -16.613454 0.000000 -0.000000 0.000000 -0.794246 1.290000 -45.239065 1.058862 -19.917748 52.935553 -2.393322 1.324365 -32.827411 0.000000 -0.000000 0.000000 5.629409 -4.255510 54.086622 -0.372122 4.235149 -7.144112 3.044958 1.307854 -2.979936 -13.382015 2.173163 -19.139939 -3.884912 0.697453 -6.472971 -23.747535 -14.161216 0.481884 -55.358386 -4.740038 11.315926 54.145525 -66.895895 -32.389968 14.669580 -12.568121 -14.794795 21.681932 21.616074 3.560919 45.483097 7.170698 3.897683 -32.317626 50.923513 -22.648314 0.642007 8.783034 -9.903805 
2.223607 0.447785 0.863802 -103.330489 4.221188 107.296932 10.439075 1.367509 -49.534749 -6.231863 11.541994 82.100198 0.558831 2.071068 -21.918135 0.000000 -0.000000 0.000000 -1.053479 -0.620075 -39.721014 0.637024 -15.999874 58.376411 -2.303848 0.638905 -34.793757 0.000000 -0.000000 0.000000 5.097209 -1.426696 58.265189 -1.566922 2.999829 -6.147396 2.285962 1.948836 -3.425111 -13.679307 0.801283 -19.135093 -2.996089 0.911388 -6.494687 -26.687577 -16.889605 1.318793 -51.407724 -2.852995 8.546738 49.332566 -61.756292 -31.913152 15.626417 -11.456512 -14.866754 21.881467 25.301577 3.480126 42.774648 9.820421 2.583053 -38.594769 53.283263 -29.891560 0.817037 9.535361 -9.075967 
2.164647 0.448397 0.851803 -105.470050 3.433257 106.020443 11.536145 3.118137 -56.919325 -6.097779 14.215033 81.317440 0.685814 0.940567 -23.791194 0.000000 -0.000000 0.000000 -2.050596 -1.641148 -36.230500 0.463590 -12.993549 61.965323 -1.484390 1.032325 -35.944574 0.000000 -0.000000 0.000000 4.576444 0.309179 60.178629 -2.268379 2.050832 -4.935667 1.771487 2.324952 -3.873509 -13.853314 0.318140 -18.709783 -2.498577 0.992784 -6.466888 -28.377611 -18.276993 1.803473 -49.130207 -1.661952 6.865278 48.782314 -59.372971 -33.424623 16.423232 -11.452887 -14.754495 21.855769 27.665055 3.613913 40.859843 11.469438 1.865187 -42.418937 54.775749 -34.038832 0.634562 10.210470 -8.133559 
2.082474 0.448472 0.832442 -108.037942 2.392837 104.617612 12.520718 5.670856 -64.876653 -6.316694 17.209925 75.424048 0.360100 -0.037050 -24.705593 0.000000 -0.000000 0.000000 -3.947922 -2.920827 -30.579512 0.794105 -8.332151 65.077071 -0.002275 2.470252 -38.106956 0.000000 -0.000000 0.000000 3.879261 2.429442 61.539277 -3.112761 0.681335 -2.879128 1.123172 2.766675 -4.434101 -14.077265 0.211310 -17.650111 -2.044247 1.005059 -6.200088 -29.802903 -19.504352 1.976787 -46.973761 -0.192335 4.643581 49.864507 -57.385064 -35.633004 17.050478 -11.508192 -13.732028 21.368291 30.482837 3.473712 38.510490 13.951599 1.044486 -47.031799 57.029709 -38.669748 -0.018345 10.845242 -6.798334 
1.996533 0.449799 0.811053 -110.409913 2.013977 104.400167 13.901931 8.184848 -70.599995 -6.028711 20.448287 65.434025 -0.588931 0.188301 -22.285129 0.000000 -0.000000 0.000000 -5.680009 -3.658460 -23.898308 1.610315 -3.373330 64.464959 0.806745 3.728807 -40.828534 0.000000 -0.000000 0.000000 2.995083 4.804999 60.727418 -3.931143 -0.243742 -0.620308 0.719417 3.141366 -4.756746 -14.134406 0.403021 -15.731937 -1.340861 1.077653 -6.116249 -29.931705 -19.923754 1.933350 -45.841212 0.665672 2.548034 52.794239 -56.909020 -38.618424 17.278277 -11.157767 -14.026756 20.171303 32.467483 3.081811 37.563490 16.969415 0.407092 -52.383769 59.430474 -43.101891 -0.577630 11.281033 -5.813026 
1.905027 0.452632 0.792868 -112.167524 2.520523 105.367770 15.029603 9.885365 -74.394201 -5.117457 23.911774 55.496789 -2.109520 1.562494 -13.619566 0.000000 -0.000000 0.000000 -6.931151 -4.477565 -16.200801 1.947698 1.134972 59.634045 1.309146 4.720988 -41.869889 0.000000 -0.000000 0.000000 2.215845 7.249616 58.738270 -4.726244 -0.898586 1.055632 0.456464 3.496448 -4.689596 -13.955413 0.422497 -13.534370 -0.226467 1.396577 -5.958599 -28.736061 -20.036270 1.822556 -45.328758 0.761723 0.744322 57.392855 -57.549648 -42.085387 18.353694 -10.835660 -15.176890 17.978839 33.679960 2.033149 38.773069 19.792891 0.147096 -59.746607 61.734501 -48.436580 -1.288486 12.223201 -5.347384 
1.806684 0.457310 0.781683 -112.671060 4.427031 107.268891 15.199416 10.252859 -77.319374 -4.444031 26.199670 50.685295 -4.649181 0.976990 -1.961329 0.000000 -0.000000 0.000000 -6.807758 -4.718723 -8.181830 1.347019 4.906588 51.521798 3.274692 6.621873 -37.472556 0.000000 -0.000000 0.000000 2.071535 9.347893 56.784412 -5.319101 -1.430995 2.038152 0.361115 3.835502 -4.756493 -13.876309 -0.215704 -11.115949 1.125691 2.409477 -6.050577 -27.030275 -20.466554 1.417828 -44.546703 0.640762 -0.535980 63.791656 -58.316835 -46.730305 19.205208 -10.956583 -14.540802 15.406398 34.550082 0.310371 41.143261 21.416272 0.748617 -69.487296 63.379982 -56.465962 -2.118908 13.256501 -5.912514 
1.675859 0.466420 0.778384 -111.579181 8.395495 111.787772 14.290434 8.399243 -79.862818 -1.542038 27.918836 54.103245 2.589087 0.506051 -5.342107 0.000000 -0.000000 0.000000 -4.986704 -4.422283 -1.330053 0.157286 8.481945 39.851590 12.657047 11.040482 -18.132417 0.000000 -0.000000 0.000000 1.312475 11.802173 54.338206 -5.556836 -1.830314 1.654656 0.976976 4.544057 -4.659448 -14.465991 -2.281122 -8.431951 2.771056 5.206980 -6.800512 -24.635372 -21.209564 0.503273 -42.287544 -1.002407 -1.971219 71.320210 -58.693284 -53.737390 19.587768 -11.679125 -12.265992 12.818680 34.770401 -2.046583 44.032520 22.844907 3.064327 -82.479050 63.114616 -68.213431 -2.597167 14.095696 -5.002574 
1.569972 0.476460 0.787110 -109.456169 12.157141 117.289893 15.180944 6.247492 -81.267432 2.217296 26.600960 60.585624 9.522090 1.971526 -16.845842 0.000000 -0.000000 0.000000 -3.636334 -6.039029 -0.193750 -1.043937 8.153331 30.141331 24.976815 12.676372 9.779933 0.000000 -0.000000 0.000000 -0.055766 14.094642 53.197328 -5.454461 -2.172603 -0.611641 1.995844 5.199630 -3.834097 -14.958565 -3.419375 -7.543414 4.253074 6.076013 -7.808081 -20.879005 -22.446049 -0.291396 -40.622758 -4.719400 -3.359572 75.682952 -57.373806 -58.029164 19.678952 -12.598952 -10.849248 9.932838 33.962300 -3.999580 46.534216 24.729509 4.147161 -91.001815 61.541521 -74.621898 -1.835414 14.666054 -4.490149 
1.467674 0.480827 0.806979 -105.525024 13.919276 124.498949 17.583250 2.161764 -82.903891 1.894107 23.315401 63.111443 9.988599 3.852077 -22.432691 0.000000 -0.000000 0.000000 -3.548954 -8.102961 -3.100855 0.139736 3.394829 26.718681 28.598063 10.295986 23.040184 0.000000 -0.000000 0.000000 -0.942125 15.061714 52.779277 -5.414269 -3.717178 -2.336332 1.971056 5.233955 -3.187409 -15.304256 -3.337114 -6.340749 5.670895 4.919548 -10.767133 -15.457303 -25.565037 -1.218575 -37.173801 -9.325612 -5.113608 79.102617 -54.011966 -61.549740 20.175959 -12.707062 -11.921021 5.612420 34.330172 -5.503307 47.494412 26.923874 3.167472 -97.808619 57.790542 -78.084462 -1.234737 14.737051 -5.816757 
1.365439 0.481279 0.837509 -102.000144 15.290121 130.476566 17.775249 -2.140762 -80.192956 1.050784 18.626618 59.961026 9.713673 6.004181 -26.130424 0.000000 -0.000000 0.000000 -3.859872 -9.350878 -7.819830 0.108597 -4.188925 34.585573 29.397584 9.158472 17.965801 0.000000 -0.000000 0.000000 -1.538016 15.152942 54.573534 -6.306724 -4.405518 -1.738963 1.125725 5.153670 -4.305711 -15.388859 -2.145442 -5.022800 6.005718 2.854525 -13.907278 -10.519218 -31.041729 -3.686556 -28.279118 -11.980056 -7.252690 79.310924 -49.453301 -64.541583 20.536904 -13.293453 -11.312389 0.516959 37.457034 -8.834202 45.046744 27.245531 1.236391 -101.048122 51.932591 -80.579495 -1.952265 14.823832 -4.618369 
